<?xml version="1.0" encoding="utf-8"?>
<svg xmlns="http://www.w3.org/2000/svg" xmlns:xlink="http://www.w3.org/1999/xlink" style="margin: auto; background: rgba(255, 255, 255, 0); display: block; shape-rendering: auto;" width="404px" height="404px" viewBox="0 0 100 100" preserveAspectRatio="xMidYMid">
<g transform="translate(50 50)">
<g transform="rotate(13.9361)">
<animateTransform attributeName="transform" type="rotate" values="0;27.692307692307693" keyTimes="0;1" dur="0.4385964912280702s" repeatCount="indefinite"></animateTransform><path d="M29.491524206117255 -5.5 L37.491524206117255 -5.5 L37.491524206117255 5.5 L29.491524206117255 5.5 A30 30 0 0 1 28.669425260244747 8.835386536379739 L28.669425260244747 8.835386536379739 L35.75307346547043 12.553171912729887 L30.641118572988972 22.293188194915192 L23.557470367763294 18.575402818565045 A30 30 0 0 1 21.279506491278863 21.146692495225366 L21.279506491278863 21.146692495225366 L25.824024465128108 27.730563422374615 L16.771201940297885 33.979275636417334 L12.226683966448638 27.39540470926808 A30 30 0 0 1 9.014709231014177 28.613546048685887 L9.014709231014177 28.613546048685887 L9.979002673056762 36.55521704147032 L-0.940794942021829 37.88112052427888 L-1.9050883840644148 29.939449531494443 A30 30 0 0 1 -5.315249275052629 29.525381033003665 L-5.315249275052629 29.525381033003665 L-8.152088371392914 37.00551097448698 L-18.437267040932475 33.10485721701909 L-15.600427944592191 25.624727275535772 A30 30 0 0 1 -18.427548227902577 23.673307042074295 L-18.427548227902577 23.673307042074295 L-24.41563421327138 28.978288308000657 L-31.709983453920145 20.744670078118542 L-25.721897468551337 15.439688812192179 A30 30 0 0 1 -27.31831795777032 12.39796370208284 L-27.31831795777032 12.39796370208284 L-35.085852497178735 14.312489016383307 L-37.718324804341876 3.6321290246967246 L-29.95079026493346 1.7176037103962598 A30 30 0 0 1 -29.95079026493346 -1.717603710396239 L-29.95079026493346 -1.717603710396239 L-37.718324804341876 -3.6321290246966984 L-35.08585249717875 -14.312489016383282 L-27.31831795777033 -12.397963702082823 A30 30 0 0 1 -25.721897468551347 -15.439688812192163 L-25.721897468551347 -15.439688812192163 L-31.70998345392016 -20.74467007811852 L-24.41563421327142 -28.978288308000636 L-18.42754822790261 -23.673307042074278 A30 30 0 0 1 -15.60042794459221 -25.624727275535765 L-15.60042794459221 -25.624727275535765 L-18.437267040932497 -33.10485721701908 L-8.152088371392924 -37.00551097448698 L-5.315249275052637 -29.52538103300366 A30 30 0 0 1 -1.9050883840644488 -29.939449531494443 L-1.9050883840644488 -29.939449531494443 L-0.9407949420218702 -37.88112052427888 L9.979002673056735 -36.55521704147033 L9.014709231014157 -28.613546048685894 A30 30 0 0 1 12.226683966448627 -27.395404709268085 L12.226683966448627 -27.395404709268085 L16.77120194029787 -33.97927563641734 L25.824024465128105 -27.730563422374622 L21.27950649127886 -21.14669249522537 A30 30 0 0 1 23.557470367763276 -18.57540281856507 L23.557470367763276 -18.57540281856507 L30.64111857298895 -22.293188194915224 L35.75307346547042 -12.553171912729908 L28.669425260244743 -8.835386536379755 A30 30 0 0 1 29.491524206117255 -5.500000000000013 M0 -20A20 20 0 1 0 0 20 A20 20 0 1 0 0 -20" fill="#bfb76b"></path></g></g>
<!-- [ldio] generated by https://loading.io/ --></svg>